<svg height="32" viewBox="0 0 32 32" width="32" xmlns="http://www.w3.org/2000/svg"><path d="m16 0c8.836556 0 16 7.163444 16 16s-7.163444 16-16 16-16-7.163444-16-16 7.163444-16 16-16zm-.963 16.962-6.47769817.0010646c.25401631 6.7922272 3.16880047 12.105207 6.47823017 12.9841836zm8.4036982.0010646-6.4786982-.0010646.000468 12.9852482c3.3094297-.8789766 6.2242139-6.1919564 6.4782302-12.9841836zm-16.80745357-.0004299-4.67601158.000287c.36506505 5.4033438 3.7795467 9.9704684 8.53657645 11.9945054-2.13532391-2.6423568-3.59249852-6.7840773-3.83987914-11.5193229zm23.40952227.000287-4.6760115-.000287c-.1716749 4.9329345-1.6540635 9.2643571-3.8615957 11.9957956 4.6568252-1.9819542 8.0266369-6.3989699 8.5101803-11.6517664zm-19.5479266-13.92135195-.1097053.047786c-4.70029286 2.04701085-8.06562289 6.58561438-8.42790195 11.94772255l4.67601158.000287c.17167487-4.9329345 1.6540635-9.26435706 3.86159567-11.99579555zm-1.93553847 11.99543025h6.47769817l.000532-12.98424819c-3.3094297.87897658-6.22421386 6.19195643-6.47823017 12.98424819zm8.40316617-12.98424819-.000468 12.98424819h6.4786982c-.2540163-6.79229176-3.1688005-12.10527161-6.4782302-12.98424819zm4.5437225.98982107.0355583.04449899c2.1873129 2.73390333 3.6542819 7.04466263 3.8250066 11.95029343l4.6760115-.000287c-.365065-5.40334377-3.7795467-9.9704684-8.5365764-11.99450542z"/></svg>